<?xml version="1.0" ?><!DOCTYPE svg  PUBLIC '-//W3C//DTD SVG 1.1//EN'  'http://www.w3.org/Graphics/SVG/1.1/DTD/svg11.dtd'><svg enable-background="new 0 0 64 64" height="64px" id="Layer_1" version="1.1" viewBox="0 0 64 64" width="64px" xml:space="preserve" xmlns="http://www.w3.org/2000/svg" xmlns:xlink="http://www.w3.org/1999/xlink"><g><path d="M58.923,50.382c0.102-0.244,0.102-0.52,0-0.764c-0.102-0.245-0.296-0.439-0.541-0.541   C58.26,49.026,58.13,49,58,49h-2.5c-0.001-12.645-9.988-22.952-22.505-23.475c0-0.009,0.005-0.017,0.005-0.025v-2.663   c1.442-0.433,2.499-1.753,2.5-3.337c-0.001-1.934-1.566-3.499-3.5-3.5c-1.934,0.001-3.499,1.566-3.5,3.5   c0.001,1.584,1.058,2.904,2.5,3.337V25.5c0,0.009,0.005,0.017,0.005,0.025C18.488,26.048,8.501,36.355,8.5,49H6   c-0.13,0-0.26,0.026-0.382,0.077c-0.245,0.102-0.439,0.296-0.541,0.541c-0.102,0.244-0.102,0.52,0,0.764   c0.051,0.123,0.124,0.234,0.217,0.326l5.878,5.878c0.72,0.715,1.679,1.287,2.703,1.715C14.902,58.723,15.985,58.996,17,59h30   c1.015-0.004,2.098-0.277,3.125-0.699c1.024-0.428,1.983-1,2.703-1.715l5.878-5.878C58.799,50.616,58.872,50.505,58.923,50.382z    M30.5,19.5c0.002-0.828,0.672-1.498,1.5-1.5c0.828,0.002,1.498,0.672,1.5,1.5c-0.002,0.828-0.672,1.498-1.5,1.5   C31.172,20.998,30.502,20.328,30.5,19.5z M16.798,33.798C20.691,29.905,26.061,27.5,32,27.5s11.309,2.405,15.202,6.298   C51.095,37.691,53.499,43.061,53.5,49h-43C10.5,43.061,12.905,37.691,16.798,33.798z M51.414,55.172   c-0.446,0.451-1.223,0.939-2.055,1.281C48.53,56.8,47.636,57.004,47,57H17c-0.636,0.004-1.53-0.2-2.359-0.547   c-0.832-0.342-1.608-0.83-2.055-1.281L8.414,51h47.172L51.414,55.172z" fill="#231F20"/><path d="M24.684,32.052c-3.209,1.068-5.364,2.95-6.702,4.558c-1.34,1.61-1.882,2.95-1.91,3.02   c-0.205,0.513,0.045,1.095,0.558,1.3s1.095-0.045,1.3-0.558V40.37c0.032-0.078,0.534-1.251,1.7-2.611   c1.168-1.361,2.983-2.908,5.688-3.811c0.523-0.174,0.807-0.74,0.632-1.265C25.774,32.16,25.208,31.877,24.684,32.052z" fill="#231F20"/></g></svg>